<mxfile host="app.diagrams.net" agent="Mozilla/5.0 (Macintosh; Intel Mac OS X 10_15_7) AppleWebKit/537.36 (KHTML, like Gecko) Chrome/137.0.0.0 Safari/537.36" version="27.1.4">
  <diagram name="Page-1" id="bGCrXOEUAq-z2XJxZs0B">
    <mxGraphModel dx="1234" dy="790" grid="0" gridSize="10" guides="1" tooltips="1" connect="1" arrows="1" fold="1" page="1" pageScale="1" pageWidth="850" pageHeight="1100" math="0" shadow="0">
      <root>
        <mxCell id="0" />
        <mxCell id="1" parent="0" />
        <mxCell id="7ef0NvVpNV2Hqp3OgIYg-39" style="edgeStyle=orthogonalEdgeStyle;rounded=0;orthogonalLoop=1;jettySize=auto;html=1;exitX=0.5;exitY=1;exitDx=0;exitDy=0;entryX=0.5;entryY=0;entryDx=0;entryDy=0;strokeWidth=2;" edge="1" parent="1" source="7ef0NvVpNV2Hqp3OgIYg-2" target="7ef0NvVpNV2Hqp3OgIYg-7">
          <mxGeometry relative="1" as="geometry" />
        </mxCell>
        <mxCell id="7ef0NvVpNV2Hqp3OgIYg-2" value="" style="rounded=1;whiteSpace=wrap;html=1;fillColor=#e1d5e7;strokeColor=#9673a6;strokeWidth=2;" vertex="1" parent="1">
          <mxGeometry x="176" y="300" width="120" height="60" as="geometry" />
        </mxCell>
        <mxCell id="7ef0NvVpNV2Hqp3OgIYg-1" value="&lt;font style=&quot;font-size: 16px;&quot;&gt;实体 &amp;amp; 关系&lt;/font&gt;" style="text;html=1;align=center;verticalAlign=middle;whiteSpace=wrap;rounded=0;" vertex="1" parent="1">
          <mxGeometry x="193" y="315" width="91" height="30" as="geometry" />
        </mxCell>
        <mxCell id="7ef0NvVpNV2Hqp3OgIYg-36" style="edgeStyle=orthogonalEdgeStyle;rounded=0;orthogonalLoop=1;jettySize=auto;html=1;exitX=0.5;exitY=1;exitDx=0;exitDy=0;entryX=0.5;entryY=0;entryDx=0;entryDy=0;strokeWidth=2;" edge="1" parent="1" source="7ef0NvVpNV2Hqp3OgIYg-3" target="7ef0NvVpNV2Hqp3OgIYg-5">
          <mxGeometry relative="1" as="geometry" />
        </mxCell>
        <mxCell id="7ef0NvVpNV2Hqp3OgIYg-3" value="" style="rounded=1;whiteSpace=wrap;html=1;fillColor=#e1d5e7;strokeColor=#9673a6;strokeWidth=2;" vertex="1" parent="1">
          <mxGeometry x="176" y="86" width="120" height="60" as="geometry" />
        </mxCell>
        <mxCell id="7ef0NvVpNV2Hqp3OgIYg-4" value="&lt;span style=&quot;font-size: 16px;&quot;&gt;源文档&lt;/span&gt;" style="text;html=1;align=center;verticalAlign=middle;whiteSpace=wrap;rounded=0;" vertex="1" parent="1">
          <mxGeometry x="193" y="101" width="91" height="30" as="geometry" />
        </mxCell>
        <mxCell id="7ef0NvVpNV2Hqp3OgIYg-37" style="edgeStyle=orthogonalEdgeStyle;rounded=0;orthogonalLoop=1;jettySize=auto;html=1;exitX=0.5;exitY=1;exitDx=0;exitDy=0;entryX=0.5;entryY=0;entryDx=0;entryDy=0;strokeWidth=2;" edge="1" parent="1" source="7ef0NvVpNV2Hqp3OgIYg-5" target="7ef0NvVpNV2Hqp3OgIYg-2">
          <mxGeometry relative="1" as="geometry" />
        </mxCell>
        <mxCell id="7ef0NvVpNV2Hqp3OgIYg-5" value="" style="rounded=1;whiteSpace=wrap;html=1;fillColor=#e1d5e7;strokeColor=#9673a6;strokeWidth=2;" vertex="1" parent="1">
          <mxGeometry x="176" y="189" width="120" height="60" as="geometry" />
        </mxCell>
        <mxCell id="7ef0NvVpNV2Hqp3OgIYg-6" value="&lt;span style=&quot;font-size: 16px;&quot;&gt;文本块&lt;/span&gt;" style="text;html=1;align=center;verticalAlign=middle;whiteSpace=wrap;rounded=0;" vertex="1" parent="1">
          <mxGeometry x="193" y="204" width="91" height="30" as="geometry" />
        </mxCell>
        <mxCell id="7ef0NvVpNV2Hqp3OgIYg-49" style="edgeStyle=orthogonalEdgeStyle;rounded=0;orthogonalLoop=1;jettySize=auto;html=1;exitX=1;exitY=0.5;exitDx=0;exitDy=0;entryX=0;entryY=0.5;entryDx=0;entryDy=0;strokeWidth=2;" edge="1" parent="1" source="7ef0NvVpNV2Hqp3OgIYg-7" target="7ef0NvVpNV2Hqp3OgIYg-32">
          <mxGeometry relative="1" as="geometry" />
        </mxCell>
        <mxCell id="7ef0NvVpNV2Hqp3OgIYg-7" value="" style="rounded=1;whiteSpace=wrap;html=1;fillColor=#e1d5e7;strokeColor=#9673a6;strokeWidth=2;" vertex="1" parent="1">
          <mxGeometry x="176" y="429" width="120" height="60" as="geometry" />
        </mxCell>
        <mxCell id="7ef0NvVpNV2Hqp3OgIYg-8" value="&lt;span style=&quot;font-size: 16px;&quot;&gt;知识图谱&lt;/span&gt;" style="text;html=1;align=center;verticalAlign=middle;whiteSpace=wrap;rounded=0;" vertex="1" parent="1">
          <mxGeometry x="193" y="444" width="91" height="30" as="geometry" />
        </mxCell>
        <mxCell id="7ef0NvVpNV2Hqp3OgIYg-44" style="edgeStyle=orthogonalEdgeStyle;rounded=0;orthogonalLoop=1;jettySize=auto;html=1;exitX=0.5;exitY=0;exitDx=0;exitDy=0;entryX=0.5;entryY=1;entryDx=0;entryDy=0;strokeWidth=2;" edge="1" parent="1" source="7ef0NvVpNV2Hqp3OgIYg-13" target="7ef0NvVpNV2Hqp3OgIYg-15">
          <mxGeometry relative="1" as="geometry" />
        </mxCell>
        <mxCell id="7ef0NvVpNV2Hqp3OgIYg-13" value="" style="rounded=1;whiteSpace=wrap;html=1;fillColor=#d5e8d4;strokeColor=#82b366;strokeWidth=2;" vertex="1" parent="1">
          <mxGeometry x="490" y="196" width="120" height="60" as="geometry" />
        </mxCell>
        <mxCell id="7ef0NvVpNV2Hqp3OgIYg-14" value="&lt;span style=&quot;font-size: 16px;&quot;&gt;社区答案&lt;/span&gt;" style="text;html=1;align=center;verticalAlign=middle;whiteSpace=wrap;rounded=0;" vertex="1" parent="1">
          <mxGeometry x="507" y="211" width="91" height="30" as="geometry" />
        </mxCell>
        <mxCell id="7ef0NvVpNV2Hqp3OgIYg-15" value="" style="rounded=1;whiteSpace=wrap;html=1;fillColor=#d5e8d4;strokeColor=#82b366;strokeWidth=2;" vertex="1" parent="1">
          <mxGeometry x="490" y="86" width="120" height="60" as="geometry" />
        </mxCell>
        <mxCell id="7ef0NvVpNV2Hqp3OgIYg-16" value="&lt;span style=&quot;font-size: 16px;&quot;&gt;全局答案&lt;/span&gt;" style="text;html=1;align=center;verticalAlign=middle;whiteSpace=wrap;rounded=0;" vertex="1" parent="1">
          <mxGeometry x="507" y="101" width="91" height="30" as="geometry" />
        </mxCell>
        <mxCell id="7ef0NvVpNV2Hqp3OgIYg-17" value="&lt;p data-pm-slice=&quot;0 0 []&quot; dir=&quot;auto&quot;&gt;&lt;font style=&quot;font-size: 16px;&quot;&gt;文本提取与分块&lt;/font&gt;&lt;/p&gt;" style="text;html=1;align=center;verticalAlign=middle;whiteSpace=wrap;rounded=0;" vertex="1" parent="1">
          <mxGeometry x="243" y="152" width="121" height="30" as="geometry" />
        </mxCell>
        <mxCell id="7ef0NvVpNV2Hqp3OgIYg-18" value="&lt;p data-pm-slice=&quot;0 0 []&quot; dir=&quot;auto&quot;&gt;&lt;font style=&quot;font-size: 16px;&quot;&gt;特定领域摘要&lt;/font&gt;&lt;/p&gt;" style="text;html=1;align=center;verticalAlign=middle;whiteSpace=wrap;rounded=0;" vertex="1" parent="1">
          <mxGeometry x="240" y="258" width="121" height="30" as="geometry" />
        </mxCell>
        <mxCell id="7ef0NvVpNV2Hqp3OgIYg-19" value="&lt;p data-pm-slice=&quot;0 0 []&quot; dir=&quot;auto&quot;&gt;&lt;font style=&quot;font-size: 16px;&quot;&gt;社区检测&lt;/font&gt;&lt;/p&gt;" style="text;html=1;align=center;verticalAlign=middle;whiteSpace=wrap;rounded=0;" vertex="1" parent="1">
          <mxGeometry x="330" y="429" width="121" height="30" as="geometry" />
        </mxCell>
        <mxCell id="7ef0NvVpNV2Hqp3OgIYg-20" value="&lt;p data-pm-slice=&quot;0 0 []&quot; dir=&quot;auto&quot;&gt;&lt;font style=&quot;font-size: 16px;&quot;&gt;特定领域摘要&lt;/font&gt;&lt;/p&gt;" style="text;html=1;align=center;verticalAlign=middle;whiteSpace=wrap;rounded=0;" vertex="1" parent="1">
          <mxGeometry x="237" y="379" width="121" height="30" as="geometry" />
        </mxCell>
        <mxCell id="7ef0NvVpNV2Hqp3OgIYg-21" value="&lt;p data-pm-slice=&quot;0 0 []&quot; dir=&quot;auto&quot;&gt;&lt;font style=&quot;font-size: 16px;&quot;&gt;特定领域摘要&lt;/font&gt;&lt;/p&gt;" style="text;html=1;align=center;verticalAlign=middle;whiteSpace=wrap;rounded=0;" vertex="1" parent="1">
          <mxGeometry x="559" y="385" width="121" height="30" as="geometry" />
        </mxCell>
        <mxCell id="7ef0NvVpNV2Hqp3OgIYg-22" value="&lt;p data-pm-slice=&quot;0 0 []&quot; dir=&quot;auto&quot;&gt;&lt;font style=&quot;font-size: 16px;&quot;&gt;以查询为导向的摘要&lt;/font&gt;&lt;/p&gt;" style="text;html=1;align=center;verticalAlign=middle;whiteSpace=wrap;rounded=0;" vertex="1" parent="1">
          <mxGeometry x="562" y="270" width="152" height="30" as="geometry" />
        </mxCell>
        <mxCell id="7ef0NvVpNV2Hqp3OgIYg-23" value="&lt;p data-pm-slice=&quot;0 0 []&quot; dir=&quot;auto&quot;&gt;&lt;font style=&quot;font-size: 16px;&quot;&gt;以查询为导向的摘要&lt;/font&gt;&lt;/p&gt;" style="text;html=1;align=center;verticalAlign=middle;whiteSpace=wrap;rounded=0;" vertex="1" parent="1">
          <mxGeometry x="564" y="157" width="152" height="30" as="geometry" />
        </mxCell>
        <mxCell id="7ef0NvVpNV2Hqp3OgIYg-25" value="" style="rounded=1;whiteSpace=wrap;html=1;fillColor=#e1d5e7;strokeColor=#9673a6;strokeWidth=2;" vertex="1" parent="1">
          <mxGeometry x="179" y="526" width="120" height="60" as="geometry" />
        </mxCell>
        <mxCell id="7ef0NvVpNV2Hqp3OgIYg-26" value="&lt;span style=&quot;font-size: 16px;&quot;&gt;索引时间&lt;/span&gt;" style="text;html=1;align=center;verticalAlign=middle;whiteSpace=wrap;rounded=0;" vertex="1" parent="1">
          <mxGeometry x="196" y="541" width="91" height="30" as="geometry" />
        </mxCell>
        <mxCell id="7ef0NvVpNV2Hqp3OgIYg-29" value="&lt;b&gt;&lt;font style=&quot;font-size: 24px;&quot;&gt;流水线阶段&lt;/font&gt;&lt;/b&gt;" style="text;html=1;align=center;verticalAlign=middle;whiteSpace=wrap;rounded=0;" vertex="1" parent="1">
          <mxGeometry x="322" y="544" width="151" height="30" as="geometry" />
        </mxCell>
        <mxCell id="7ef0NvVpNV2Hqp3OgIYg-30" value="" style="rounded=1;whiteSpace=wrap;html=1;fillColor=#d5e8d4;strokeColor=#82b366;strokeWidth=2;" vertex="1" parent="1">
          <mxGeometry x="488" y="526" width="120" height="60" as="geometry" />
        </mxCell>
        <mxCell id="7ef0NvVpNV2Hqp3OgIYg-31" value="&lt;span style=&quot;font-size: 16px;&quot;&gt;查询时间&lt;/span&gt;" style="text;html=1;align=center;verticalAlign=middle;whiteSpace=wrap;rounded=0;" vertex="1" parent="1">
          <mxGeometry x="505" y="541" width="91" height="30" as="geometry" />
        </mxCell>
        <mxCell id="7ef0NvVpNV2Hqp3OgIYg-42" style="edgeStyle=orthogonalEdgeStyle;rounded=0;orthogonalLoop=1;jettySize=auto;html=1;exitX=0.5;exitY=0;exitDx=0;exitDy=0;entryX=0.5;entryY=1;entryDx=0;entryDy=0;strokeWidth=2;" edge="1" parent="1" source="7ef0NvVpNV2Hqp3OgIYg-32" target="7ef0NvVpNV2Hqp3OgIYg-34">
          <mxGeometry relative="1" as="geometry" />
        </mxCell>
        <mxCell id="7ef0NvVpNV2Hqp3OgIYg-32" value="" style="rounded=1;whiteSpace=wrap;html=1;fillColor=#e1d5e7;strokeColor=#9673a6;strokeWidth=2;" vertex="1" parent="1">
          <mxGeometry x="490" y="429" width="120" height="60" as="geometry" />
        </mxCell>
        <mxCell id="7ef0NvVpNV2Hqp3OgIYg-33" value="&lt;span style=&quot;font-size: 16px;&quot;&gt;图社区&lt;/span&gt;" style="text;html=1;align=center;verticalAlign=middle;whiteSpace=wrap;rounded=0;" vertex="1" parent="1">
          <mxGeometry x="507" y="444" width="91" height="30" as="geometry" />
        </mxCell>
        <mxCell id="7ef0NvVpNV2Hqp3OgIYg-43" style="edgeStyle=orthogonalEdgeStyle;rounded=0;orthogonalLoop=1;jettySize=auto;html=1;exitX=0.5;exitY=0;exitDx=0;exitDy=0;strokeWidth=2;" edge="1" parent="1" source="7ef0NvVpNV2Hqp3OgIYg-34">
          <mxGeometry relative="1" as="geometry">
            <mxPoint x="550" y="257.5" as="targetPoint" />
          </mxGeometry>
        </mxCell>
        <mxCell id="7ef0NvVpNV2Hqp3OgIYg-34" value="" style="rounded=1;whiteSpace=wrap;html=1;fillColor=#e1d5e7;strokeColor=#9673a6;strokeWidth=2;" vertex="1" parent="1">
          <mxGeometry x="490" y="310" width="120" height="60" as="geometry" />
        </mxCell>
        <mxCell id="7ef0NvVpNV2Hqp3OgIYg-35" value="&lt;span style=&quot;font-size: 16px;&quot;&gt;社区摘要&lt;/span&gt;" style="text;html=1;align=center;verticalAlign=middle;whiteSpace=wrap;rounded=0;" vertex="1" parent="1">
          <mxGeometry x="507" y="325" width="91" height="30" as="geometry" />
        </mxCell>
      </root>
    </mxGraphModel>
  </diagram>
</mxfile>
